<svg xmlns="http://www.w3.org/2000/svg" xmlns:xlink="http://www.w3.org/1999/xlink" width="31.6" height="24.2" viewBox="0 0 31.6 24.2">
  <defs>
    <linearGradient id="a" x1="15.16" y1="24.44" x2="17.16" y2="0.12" gradientUnits="userSpaceOnUse">
      <stop offset="0" stop-color="#24a750"/>
      <stop offset="1" stop-color="#48cf4b"/>
    </linearGradient>
  </defs>
  <path fill="url(#a)" d="M14.8,12.5v11c-4.1.6-10.6,1.3-13.4-2.5s-.7-8.2,3.2-9.8C0,9.6,0,3.2,4.3,1.2A11.4,11.4,0,0,1,8.8.2a30.4,30.4,0,0,1,6,.5v9.5h1.9V.7a30.4,30.4,0,0,1,6-.5,11.4,11.4,0,0,1,4.5,1c4.3,2,4.3,8.4-.3,10,3.9,1.6,6,6,3.2,9.8s-9.3,3.1-13.4,2.5v-11Zm-3.2.1a14,14,0,0,0-3-.1c-1,.1-4.1.6-5.1,2.9a4.5,4.5,0,0,0,0,3c1,2.6,4.7,2.9,5.5,3a10.1,10.1,0,0,0,2.6-.1Zm0-9.7H9.3c-2.4-.1-4.4,1-5,2.7A3.5,3.5,0,0,0,4.4,8c.6,1.4,2.5,2.4,4.4,2.4h2.8Zm8.3,18.4a10.1,10.1,0,0,0,2.6.1c.8-.1,4.5-.4,5.5-3a4.5,4.5,0,0,0,0-3c-1-2.3-4.1-2.8-5.1-2.9a14,14,0,0,0-3,.1Zm0-11h2.8c1.9,0,3.8-1,4.4-2.4a4.2,4.2,0,0,0,.1-2.5c-.6-1.7-2.7-2.8-5-2.7H19.9Z"/>
</svg>
